<?xml version="1.0" encoding="utf-8"?>
<!-- Generator: Adobe Illustrator 19.0.0, SVG Export Plug-In . SVG Version: 6.00 Build 0)  -->
<svg version="1.1" id="_x32_" xmlns="http://www.w3.org/2000/svg" xmlns:xlink="http://www.w3.org/1999/xlink" x="0px" y="0px"
	 viewBox="-41 197.2 512 445.9" style="enable-background:new -41 197.2 512 445.9;" xml:space="preserve">
<style type="text/css">
	.st0{fill:#4B4B4B;}
</style>
<g>
	<path class="st0" d="M161.7,345.9c-44.4,0-80.4,36-80.4,80.5c0,44.4,36,80.4,80.4,80.4c44.4,0,80.5-36,80.5-80.4
		C242.2,381.9,206.2,345.9,161.7,345.9z"/>
	<path class="st0" d="M424.9,198.5H5.2c-25.5,0-46.2,20.6-46.2,46.1v352.6c0,25.5,20.7,46.1,46.2,46.1h419.7
		c25.5,0,46.1-20.7,46.1-46.1V244.6C471,219.1,450.3,198.5,424.9,198.5z M161.7,575.5c-82.4,0-149.1-66.7-149.1-149.2
		c0-82.4,66.8-149.2,149.1-149.2c82.4,0,149.2,66.8,149.2,149.2C310.9,508.7,244.1,575.5,161.7,575.5z M426.9,345.7h-73.2v-73.2
		h73.2V345.7z"/>
</g>
</svg>
